# xmcd
#
# Track frame offsets: 
#        150
#        12736
#        33770
#        49702
#        72630
#        85805
#        102529
#        114807
#        127871
#        141305
#        156880
#        171990
#        185722
#        200760
#
# Disc length: 2914 seconds
#
# Revision: 1
# Processed by: cddbd v1.5.2PL0 Copyright (c) Steve Scherf et al.
# Submitted via: ExactAudioCopy v1.0b4
#
DISCID=c90b600e
DTITLE=David Wilcox - Airstream
DYEAR=2008
DGENRE=Jazz
TTITLE0=Right on Time
TTITLE1=Forever Now
TTITLE2=Perfect Storm
TTITLE3=Three Brothers
TTITLE4=Plain View
TTITLE5=The Reason
TTITLE6=Reaper Sweepstakes
TTITLE7=Falling For It
TTITLE8=To Love
TTITLE9=Little White Lie
TTITLE10=This Old Car
TTITLE11=Never Change
TTITLE12=No Telling Where
TTITLE13=The Crossings
EXTD=YEAR: 2008
EXTT0=
EXTT1=
EXTT2=
EXTT3=
EXTT4=
EXTT5=
EXTT6=
EXTT7=
EXTT8=
EXTT9=
EXTT10=
EXTT11=
EXTT12=
EXTT13=
PLAYORDER=
